HIERARCHY
ROOT Hips
{
	OFFSET 0.000000 0.000000 0.000000 
	CHANNELS 6 Xposition Yposition Zposition Zrotation Yrotation Xrotation
	JOINT LeftUpLeg
	{
		OFFSET 1.363060 -1.794630 0.839290 
		CHANNELS 3 Zrotation Yrotation Xrotation
		JOINT LeftLeg
		{
			OFFSET 2.448110 -6.726130 0.000000 
			CHANNELS 3 Zrotation Yrotation Xrotation
			JOINT LeftFoot
			{
				OFFSET 2.562200 -7.039590 0.000000 
				CHANNELS 3 Zrotation Yrotation Xrotation
				JOINT LeftToeBase
				{
					OFFSET 0.157640 -0.433110 2.322550 
					CHANNELS 3 Zrotation Yrotation Xrotation
					End Site
					{
						OFFSET 0.000000 0.000000 0.000000 
					}
				}
			}
		}
	}
	JOINT RightUpLeg
	{
		OFFSET -1.305520 -1.794630 0.839290 
		CHANNELS 3 Zrotation Yrotation Xrotation
		JOINT RightLeg
		{
			OFFSET -2.542530 -6.985550 0.000000 
			CHANNELS 3 Zrotation Yrotation Xrotation
			JOINT RightFoot
			{
				OFFSET -2.568260 -7.056230 0.000000 
				CHANNELS 3 Zrotation Yrotation Xrotation
				JOINT RightToeBase
				{
					OFFSET -0.164730 -0.452590 2.363150 
					CHANNELS 3 Zrotation Yrotation Xrotation
					End Site
					{
						OFFSET 0.000000 0.000000 0.000000 
					}
				}
			}
		}
	}
	JOINT Spine
	{
		OFFSET 0.028270 2.035590 -0.193380 
		CHANNELS 3 Zrotation Yrotation Xrotation
		JOINT Spine1
		{
			OFFSET 0.056720 2.048850 -0.042750 
			CHANNELS 3 Zrotation Yrotation Xrotation
			JOINT Neck1
			{
				OFFSET -0.054170 1.746240 0.172020 
				CHANNELS 3 Zrotation Yrotation Xrotation
				JOINT Head
				{
					OFFSET 0.104070 1.761360 -0.123970 
					CHANNELS 3 Zrotation Yrotation Xrotation
					End Site
					{
						OFFSET 0.000000 0.000000 0.000000 
					}
				}
			}
			JOINT LeftArm
			{
				OFFSET 3.362410 1.200890 -0.311210 
				CHANNELS 3 Zrotation Yrotation Xrotation
				JOINT LeftForeArm
				{
					OFFSET 4.983000 -0.000000 -0.000000 
					CHANNELS 3 Zrotation Yrotation Xrotation
					JOINT LeftHand
					{
						OFFSET 3.483560 -0.000000 -0.000000 
						CHANNELS 3 Zrotation Yrotation Xrotation
						JOINT LeftHandIndex1
						{
							OFFSET 0.715260 -0.000000 -0.000000 
							CHANNELS 3 Zrotation Yrotation Xrotation
							End Site
							{
								OFFSET 0.000000 0.000000 0.000000 
							}
						}
					}
				}
			}
			JOINT RightArm
			{
				OFFSET -3.136600 1.374050 -0.404650 
				CHANNELS 3 Zrotation Yrotation Xrotation
				JOINT RightForeArm
				{
					OFFSET -5.241900 -0.000000 -0.000000 
					CHANNELS 3 Zrotation Yrotation Xrotation
					JOINT RightHand
					{
						OFFSET -3.444170 -0.000000 -0.000000 
						CHANNELS 3 Zrotation Yrotation Xrotation
						JOINT RightHandIndex1
						{
							OFFSET -0.622530 -0.000000 -0.000000 
							CHANNELS 3 Zrotation Yrotation Xrotation
							End Site
							{
								OFFSET 0.000000 0.000000 0.000000 
							}
						}
					}
				}
			}
		}
	}
}
MOTION
Frames: 10
Frame Time: 0.041667
-8.231604 16.640136 6.548614 -43.709578 62.228041 -17.262007 -28.339987 8.156981 -68.007261 1.794459 15.652164 38.782864 1.163791 -0.186507 15.702533 0.450400 -4.305600 -11.938000 12.106412 -7.791521 12.540082 2.512573 0.317404 1.966792 1.214135 -13.995311 28.851625 -6.748300 15.116200 -47.915900 0.372278 8.482048 -1.712557 -2.144969 4.846348 2.148414 5.397183 -5.234004 0.876332 5.988800 -0.658400 -4.578600 -69.644847 38.891322 57.131461 18.600941 -40.497128 -8.883233 0.406755 -3.143644 -19.388402 -7.125000 0.000000 0.000000 69.859650 25.561150 -7.215294 -43.475434 44.356982 -29.602337 1.624676 -0.102727 -39.071636 7.125000 0.000000 0.000000 
-7.623473 16.607248 6.747772 -47.157238 62.170779 -20.772587 -27.577665 8.415688 -66.948882 1.237123 14.943933 36.470033 0.796284 1.648481 16.073922 0.684700 -5.290300 -14.738300 13.557691 -7.407015 15.786593 2.497824 0.376273 1.886174 1.540086 -14.506444 27.741153 -6.130000 14.553200 -45.501300 0.525949 7.505766 -1.732911 -0.803537 4.205643 2.066480 5.805293 -4.161293 0.964029 6.689600 -0.013500 -4.626400 -74.136677 38.783120 53.152617 18.688935 -40.297725 -8.720764 0.231632 -2.925827 -19.382523 -7.125000 0.000000 0.000000 71.982623 23.465725 -4.618008 -46.890446 46.259271 -32.555786 1.667423 0.086092 -40.400806 7.125000 0.000000 0.000000 
-7.019008 16.571038 6.939368 -50.513360 61.928347 -24.263501 -26.480577 8.587657 -65.504915 0.994834 14.521630 35.171342 0.417456 3.207884 16.105933 0.425200 -4.185100 -11.597900 15.379428 -6.883969 18.961730 2.573018 0.519323 1.781113 0.833264 -12.723417 29.055635 -6.707700 15.080700 -47.759800 0.652772 6.639550 -1.762844 -0.040355 3.659031 2.324545 5.662982 -1.548955 0.843693 6.585400 1.298700 -4.638600 -77.639341 37.796685 49.950381 18.757653 -39.985649 -8.553048 0.055210 -2.750978 -19.440060 -7.125000 0.000000 0.000000 73.921375 21.246279 -2.441247 -50.865091 48.200088 -36.158495 1.698280 0.298020 -42.850679 7.125000 0.000000 0.000000 
-6.417408 16.527837 7.127296 -53.604816 61.949493 -27.639161 -25.520681 8.721949 -64.291069 1.048703 14.383016 34.935672 0.154724 4.257106 16.693559 0.075300 -1.770600 -4.872000 17.925303 -5.850153 17.671635 1.833187 -2.729206 10.271683 1.184581 -11.705597 25.829818 -6.601400 14.986800 -47.350100 0.734243 5.825565 -1.780506 -0.020367 3.179018 2.380067 5.694320 -0.894184 1.230202 6.620500 1.551800 -4.515300 -79.578082 36.076091 47.904822 18.579589 -39.433600 -8.301275 -0.097913 -2.658128 -19.519087 -7.125000 0.000000 0.000000 76.177345 18.648732 -1.028640 -55.389257 50.194300 -40.446729 1.709353 0.499071 -45.454626 7.125000 0.000000 0.000000 
-5.836893 16.453697 7.317172 -56.043322 61.944841 -30.388940 -25.191274 8.709188 -63.174932 1.446553 14.681600 36.125104 -0.232898 4.845156 14.396255 0.542000 4.717000 13.103000 19.641873 -6.465417 17.037391 0.805201 -5.279222 17.624740 1.490552 -10.443565 21.512182 -3.429600 11.360000 -33.503800 0.776332 5.064748 -1.806364 0.106314 2.761254 2.146025 6.097298 -1.456960 1.185662 7.358500 1.403500 -4.788000 -81.007078 34.025189 46.339561 18.147292 -38.606603 -7.920173 -0.241815 -2.586440 -19.388739 -7.125000 0.000000 0.000000 78.263735 15.703707 -0.014100 -59.902791 52.035706 -44.753454 1.734609 0.661922 -46.999082 7.125000 0.000000 0.000000 
-5.236668 16.414622 7.486766 -57.458320 62.136457 -32.030669 -25.060382 8.404486 -61.746712 2.182063 15.309088 38.318704 -1.273655 7.078657 9.609926 1.382200 7.439200 21.023300 20.649080 -8.460580 15.273512 -0.248994 -7.503887 24.771842 -0.005263 -4.897176 21.926027 -7.389300 15.651100 -50.331600 0.804029 4.172927 -1.819644 0.072387 2.301470 2.303271 6.409735 -1.146022 1.258855 7.705300 1.588300 -4.912800 -82.050063 31.602153 44.954253 17.672316 -37.802242 -7.572004 -0.360797 -2.534557 -19.089387 -7.125000 0.000000 0.000000 80.107459 12.886712 1.018153 -64.314207 53.786579 -48.934178 1.674705 0.695210 -48.511233 7.125000 0.000000 0.000000 
-4.645267 16.373025 7.650058 -58.260069 62.379148 -33.003058 -24.637061 7.618983 -60.379495 3.000140 16.034446 40.915684 -2.191814 9.137774 4.921589 1.484000 7.696600 21.796400 21.249974 -9.249995 14.128131 -1.877925 -9.837424 32.085388 0.204564 -4.907466 20.176801 -6.624100 15.007000 -47.437700 0.807158 3.463433 -1.882678 -0.445465 1.939662 2.696535 6.260977 1.044878 1.407807 7.004900 2.511900 -4.508500 -82.295094 28.650506 44.112138 17.065658 -36.843768 -7.186937 -0.473575 -2.519594 -18.620158 -7.125000 0.000000 0.000000 81.902597 10.151878 1.508724 -68.865338 55.367021 -53.128832 1.685234 0.859834 -50.826181 7.125000 0.000000 0.000000 
-4.054324 16.345294 7.803380 -58.609798 62.936310 -33.419628 -23.873595 6.173848 -58.782907 3.687637 16.715679 43.495369 -1.764610 7.647776 2.362364 1.327800 7.297300 20.599200 21.342122 -10.509993 12.136047 -3.845287 -12.042552 39.806990 0.287266 -4.483573 18.343902 -6.057700 14.484000 -45.212700 0.799436 2.678047 -1.949729 -0.621070 1.527645 2.641210 6.468177 1.915722 1.162240 6.997600 2.944800 -4.702900 -82.543691 25.526202 43.094592 16.139444 -35.531735 -6.645614 -0.604607 -2.481540 -17.757138 -7.125000 0.000000 0.000000 83.346787 7.258671 1.902616 -73.514282 56.876929 -57.338381 1.588387 0.949409 -53.857754 7.125000 0.000000 0.000000 
-3.463954 16.328564 7.950972 -58.077636 63.860332 -32.968171 -23.499679 4.544633 -57.229037 4.268066 17.324485 45.884788 -0.391436 3.466675 0.381570 1.726700 8.272100 23.543500 20.714975 -12.742707 9.280416 -6.197462 -14.049471 47.952491 0.365474 -4.148002 16.385478 -8.041700 16.149800 -52.712700 0.795030 1.869132 -2.023138 -0.306661 1.049096 2.433947 6.617099 2.409961 1.083204 7.011900 3.169400 -4.810400 -82.839323 22.300867 41.895304 15.102940 -34.140194 -6.085631 -0.756256 -2.402643 -16.461374 -7.125000 0.000000 0.000000 84.384890 4.444263 2.242924 -78.140193 58.206988 -61.304110 1.484449 1.023196 -56.981004 7.125000 0.000000 0.000000 
-2.883898 16.311261 8.099940 -56.978902 64.903522 -32.122762 -23.765739 3.432858 -55.838089 4.914078 17.862052 48.062076 -0.203038 2.924311 -1.689509 1.848800 8.543700 24.378000 19.754123 -13.495583 6.804350 -8.839788 -15.760052 56.141474 0.805191 -5.590229 15.176309 -7.501000 15.739700 -50.744700 0.768075 1.131570 -2.059966 0.051549 0.623865 2.382107 6.809344 2.584988 0.817992 7.186100 3.308800 -5.085900 -82.785320 18.606645 40.701634 13.883969 -32.528718 -5.480810 -0.909536 -2.323202 -14.881199 -7.125000 0.000000 0.000000 85.446685 1.874180 2.391485 -82.829704 59.360888 -65.073363 1.397983 1.014933 -59.341576 7.125000 0.000000 0.000000 
